<svg width="32" height="32" viewBox="0 0 32 32" fill="none" xmlns="http://www.w3.org/2000/svg">
<rect x="1" y="1" width="30" height="30" rx="15" fill="url(#paint0_linear_1_3368)"/>
<rect x="1" y="1" width="30" height="30" rx="15" stroke="#DD7F24" stroke-width="1.5"/>
<path d="M11.8156 15.0589C12.9356 17.26 14.74 19.0567 16.9411 20.1844L18.6522 18.4733C18.8622 18.2633 19.1733 18.1933 19.4456 18.2867C20.3167 18.5744 21.2578 18.73 22.2222 18.73C22.65 18.73 23 19.08 23 19.5078V22.2222C23 22.65 22.65 23 22.2222 23C14.9189 23 9 17.0811 9 9.77778C9 9.35 9.35 9 9.77778 9H12.5C12.9278 9 13.2778 9.35 13.2778 9.77778C13.2778 10.75 13.4333 11.6833 13.7211 12.5544C13.8067 12.8267 13.7444 13.13 13.5267 13.3478L11.8156 15.0589Z" fill="#323232"/>
<defs>
<linearGradient id="paint0_linear_1_3368" x1="4.375" y1="0.999993" x2="39.0704" y2="4.80231" gradientUnits="userSpaceOnUse">
<stop stop-color="#EAAD7D"/>
<stop offset="1" stop-color="#E27A28"/>
</linearGradient>
</defs>
</svg>
